<svg xmlns="http://www.w3.org/2000/svg" fill="currentColor" viewBox="0 0 16 16">
    <path d="M5.7 0H3.1c-.7 0-1.4.6-1.4 1.4v13.1c0 .8.6 1.4 1.4 1.4h9.7c.8 0 1.4-.6 1.4-1.4v-6c0-1.6-1.3-2.9-2.9-2.9H10c-.8 0-1.4-.6-1.4-1.4h0V2.9C8.6 1.3 7.3 0 5.7 0zm3 .2c.6.7 1 1.7 1 2.6v1.4c0 .2.1.3.3.3h1.4c1 0 1.9.3 2.6 1C13.4 3 11.3.9 8.7.2zM7.5 12.5h-.1c-.1-.1-.1-.2-.1-.3l.5-1.7H6c-.1 0-.2-.1-.2-.1v-.3l2.5-2.7c.1-.1.2-.1.3 0s.1.2.1.3l-.4 1.6H10c.1 0 .2.1.2.1v.3l-2.5 2.7c-.1 0-.2.1-.2.1zM6.6 10H8c.1 0 .1 0 .2.1 0 .1.1.1 0 .2l-.3 1 1.5-1.6H8c-.1 0-.1 0-.2-.1 0-.1-.1-.1 0-.2l.3-1L6.6 10z"/>
</svg>
